<?xml version="1.0" encoding="utf-8"?>
<!-- Generator: Adobe Illustrator 17.1.0, SVG Export Plug-In . SVG Version: 6.00 Build 0)  -->
<!DOCTYPE svg PUBLIC "-//W3C//DTD SVG 1.1//EN" "http://www.w3.org/Graphics/SVG/1.1/DTD/svg11.dtd">
<svg version="1.1" xmlns="http://www.w3.org/2000/svg" xmlns:xlink="http://www.w3.org/1999/xlink" x="0px" y="0px"
	 viewBox="0 0 612 792" enable-background="new 0 0 612 792" xml:space="preserve">
<g id="Layer_1">
</g>
<g id="svg2">
	<g id="g4128" transform="matrix(1.4926263,0.00181035,-0.00181035,1.4926263,-56.916017,748.03856)">
		<rect id="rect4048" x="213.75" y="-267.109" fill="#E6E6E6" width="45" height="86.525"/>
		<rect id="rect4050" x="218.75" y="-259.583" fill="#F9F9F9" width="5" height="10"/>
		<rect id="rect4052" x="228.75" y="-259.583" fill="#F9F9F9" width="5" height="10"/>
		<rect id="rect4054" x="238.75" y="-259.583" fill="#F9F9F9" width="5" height="10"/>
		<path id="path4056" inkscape:connector-curvature="0" sodipodi:nodetypes="ccccc" fill="#808080" d="M211.75-267.583l2,3l45.06,0
			l1.941-3L211.75-267.583z"/>
		<rect id="rect4058" x="217.75" y="-259.583" fill="#CCCCCC" width="7" height="1"/>
		<rect id="rect4060" x="227.75" y="-259.583" fill="#CCCCCC" width="7" height="1"/>
		<rect id="rect4062" x="237.75" y="-259.583" fill="#CCCCCC" width="7" height="1"/>
		<rect id="rect4064" x="248.75" y="-259.583" fill="#F9F9F9" width="5" height="10"/>
		<rect id="rect4066" x="247.75" y="-259.583" fill="#CCCCCC" width="7" height="1"/>
		<rect id="rect4068" x="218.75" y="-244.583" fill="#F9F9F9" width="5" height="10"/>
		<rect id="rect4070" x="228.75" y="-244.583" fill="#F9F9F9" width="5" height="10"/>
		<rect id="rect4072" x="238.75" y="-244.583" fill="#F9F9F9" width="5" height="10"/>
		<rect id="rect4074" x="217.75" y="-244.583" fill="#CCCCCC" width="7" height="1"/>
		<rect id="rect4076" x="227.75" y="-244.583" fill="#CCCCCC" width="7" height="1"/>
		<rect id="rect4078" x="237.75" y="-244.583" fill="#CCCCCC" width="7" height="1"/>
		<rect id="rect4080" x="248.75" y="-244.583" fill="#F9F9F9" width="5" height="10"/>
		<rect id="rect4082" x="247.75" y="-244.583" fill="#CCCCCC" width="7" height="1"/>
		<rect id="rect4084" x="218.75" y="-229.583" fill="#F9F9F9" width="5" height="10"/>
		<rect id="rect4086" x="228.75" y="-229.583" fill="#F9F9F9" width="5" height="10"/>
		<rect id="rect4088" x="238.75" y="-229.583" fill="#F9F9F9" width="5" height="10"/>
		<rect id="rect4090" x="217.75" y="-229.583" fill="#CCCCCC" width="7" height="1"/>
		<rect id="rect4092" x="227.75" y="-229.583" fill="#CCCCCC" width="7" height="1"/>
		<rect id="rect4094" x="237.75" y="-229.583" fill="#CCCCCC" width="7" height="1"/>
		<rect id="rect4096" x="248.75" y="-229.583" fill="#F9F9F9" width="5" height="10"/>
		<rect id="rect4098" x="247.75" y="-229.583" fill="#CCCCCC" width="7" height="1"/>
		<rect id="rect4100" x="218.75" y="-214.583" fill="#F9F9F9" width="5" height="10"/>
		<rect id="rect4102" x="228.75" y="-214.583" fill="#F9F9F9" width="5" height="10"/>
		<rect id="rect4104" x="238.75" y="-214.583" fill="#F9F9F9" width="5" height="10"/>
		<rect id="rect4106" x="217.75" y="-214.583" fill="#CCCCCC" width="7" height="1"/>
		<rect id="rect4108" x="227.75" y="-214.583" fill="#CCCCCC" width="7" height="1"/>
		<rect id="rect4110" x="237.75" y="-214.583" fill="#CCCCCC" width="7" height="1"/>
		<rect id="rect4112" x="248.75" y="-214.583" fill="#F9F9F9" width="5" height="10"/>
		<rect id="rect4114" x="247.75" y="-214.583" fill="#CCCCCC" width="7" height="1"/>
		<rect id="rect4116" x="218.75" y="-195.583" fill="#FFFFFF" width="8" height="10"/>
		<rect id="rect4118" x="213.75" y="-199.583" fill="#CCCCCC" width="45" height="19"/>
		<rect id="rect4120" x="218.75" y="-195.583" fill="#F9F9F9" width="8" height="10"/>
		<rect id="rect4122" x="245.75" y="-195.583" fill="#F9F9F9" width="8" height="10"/>
		<path id="path4124" inkscape:connector-curvature="0" sodipodi:nodetypes="cccccc" fill="#E6E6E6" d="M230.75-194.57v14h11l0-14
			l-5.489-1.013L230.75-194.57z"/>
		<rect id="rect4126" x="232.75" y="-192.583" fill="#F9F9F9" width="7" height="12"/>
	</g>
	<g id="g4968">
		
			<path id="path4386" inkscape:connector-curvature="0" fill="none" stroke="#D89A87" stroke-width="1.4926" stroke-linecap="round" stroke-linejoin="round" d="
			M285.947,375.107h20.897l-20.897,22.389h20.897l-20.897,22.389h20.897l-20.897,22.389h20.897"/>
		<g id="g4732" transform="matrix(1.4926274,0,0,1.4926274,-110.03648,678.18704)">
			
				<path id="path4611" inkscape:connector-curvature="0" fill="none" stroke="#D89A87" stroke-width="0.3514" stroke-linecap="round" stroke-linejoin="round" d="
				M265.074-192.227v4.438"/>
			
				<path id="path4613" inkscape:connector-curvature="0" fill="none" stroke="#D89A87" stroke-width="0.3514" stroke-linecap="round" stroke-linejoin="round" d="
				M266.039-192.227v4.438"/>
			
				<path id="path4615" inkscape:connector-curvature="0" fill="none" stroke="#D89A87" stroke-width="0.3514" stroke-linecap="round" stroke-linejoin="round" d="
				M267.004-192.227v4.438"/>
			
				<path id="path4617" inkscape:connector-curvature="0" fill="none" stroke="#D89A87" stroke-width="0.3514" stroke-linecap="round" stroke-linejoin="round" d="
				M267.968-192.227v4.438"/>
			
				<path id="path4619" inkscape:connector-curvature="0" fill="none" stroke="#D89A87" stroke-width="0.3514" stroke-linecap="round" stroke-linejoin="round" d="
				M268.933-192.227v4.438"/>
			
				<path id="path4621" inkscape:connector-curvature="0" fill="none" stroke="#D89A87" stroke-width="0.3514" stroke-linecap="round" stroke-linejoin="round" d="
				M269.897-192.227v4.438"/>
			
				<path id="path4623" inkscape:connector-curvature="0" fill="none" stroke="#D89A87" stroke-width="0.3514" stroke-linecap="round" stroke-linejoin="round" d="
				M270.862-192.227v4.438"/>
			
				<path id="path4625" inkscape:connector-curvature="0" fill="none" stroke="#D89A87" stroke-width="0.3514" stroke-linecap="round" stroke-linejoin="round" d="
				M271.827-192.227v4.438"/>
			
				<path id="path4627" inkscape:connector-curvature="0" fill="none" stroke="#D89A87" stroke-width="0.3514" stroke-linecap="round" stroke-linejoin="round" d="
				M272.666-192.227v4.438"/>
			
				<path id="path4629" inkscape:connector-curvature="0" fill="none" stroke="#D89A87" stroke-width="0.3514" stroke-linecap="round" stroke-linejoin="round" d="
				M273.631-192.227v4.438"/>
			
				<path id="path4631" inkscape:connector-curvature="0" fill="none" stroke="#D89A87" stroke-width="0.3514" stroke-linecap="round" stroke-linejoin="round" d="
				M274.596-192.227v4.438"/>
			
				<path id="path4633" inkscape:connector-curvature="0" fill="none" stroke="#D89A87" stroke-width="0.3514" stroke-linecap="round" stroke-linejoin="round" d="
				M275.56-192.227v4.438"/>
			
				<path id="path4635" inkscape:connector-curvature="0" fill="none" stroke="#D89A87" stroke-width="0.3514" stroke-linecap="round" stroke-linejoin="round" d="
				M276.525-192.227v4.438"/>
			
				<path id="path4637" inkscape:connector-curvature="0" fill="none" stroke="#D89A87" stroke-width="0.3514" stroke-linecap="round" stroke-linejoin="round" d="
				M277.49-192.227v4.438"/>
			
				<path id="path4639" inkscape:connector-curvature="0" fill="none" stroke="#D89A87" stroke-width="0.3514" stroke-linecap="round" stroke-linejoin="round" d="
				M278.454-192.227v4.438"/>
			
				<path id="path4641" inkscape:connector-curvature="0" fill="none" stroke="#D89A87" stroke-width="0.351" stroke-linecap="round" stroke-linejoin="round" d="
				M279.419-192.227v4.438"/>
			
				<path id="path4643" inkscape:connector-curvature="0" fill="none" stroke="#D89A87" stroke-width="0.306" stroke-linecap="round" stroke-linejoin="round" d="
				M279.296-192.218h-14.237"/>
		</g>
		<g id="g4751" transform="matrix(1.4926274,0,0,1.4926274,-110.03648,678.75246)">
			
				<path id="path4436" inkscape:connector-curvature="0" fill="none" stroke="#D89A87" stroke-width="0.3514" stroke-linecap="round" stroke-linejoin="round" d="
				M265.074-207.513v4.438"/>
			
				<path id="path4438" inkscape:connector-curvature="0" fill="none" stroke="#D89A87" stroke-width="0.3514" stroke-linecap="round" stroke-linejoin="round" d="
				M266.039-207.513v4.438"/>
			
				<path id="path4440" inkscape:connector-curvature="0" fill="none" stroke="#D89A87" stroke-width="0.3514" stroke-linecap="round" stroke-linejoin="round" d="
				M267.004-207.513v4.438"/>
			
				<path id="path4442" inkscape:connector-curvature="0" fill="none" stroke="#D89A87" stroke-width="0.3514" stroke-linecap="round" stroke-linejoin="round" d="
				M267.968-207.513v4.438"/>
			
				<path id="path4444" inkscape:connector-curvature="0" fill="none" stroke="#D89A87" stroke-width="0.3514" stroke-linecap="round" stroke-linejoin="round" d="
				M268.933-207.513v4.438"/>
			
				<path id="path4446" inkscape:connector-curvature="0" fill="none" stroke="#D89A87" stroke-width="0.3514" stroke-linecap="round" stroke-linejoin="round" d="
				M269.897-207.513v4.438"/>
			
				<path id="path4448" inkscape:connector-curvature="0" fill="none" stroke="#D89A87" stroke-width="0.3514" stroke-linecap="round" stroke-linejoin="round" d="
				M270.862-207.513v4.438"/>
			
				<path id="path4450" inkscape:connector-curvature="0" fill="none" stroke="#D89A87" stroke-width="0.3514" stroke-linecap="round" stroke-linejoin="round" d="
				M271.827-207.513v4.438"/>
			
				<path id="path4593" inkscape:connector-curvature="0" fill="none" stroke="#D89A87" stroke-width="0.3514" stroke-linecap="round" stroke-linejoin="round" d="
				M272.666-207.513v4.438"/>
			
				<path id="path4595" inkscape:connector-curvature="0" fill="none" stroke="#D89A87" stroke-width="0.3514" stroke-linecap="round" stroke-linejoin="round" d="
				M273.631-207.513v4.438"/>
			
				<path id="path4597" inkscape:connector-curvature="0" fill="none" stroke="#D89A87" stroke-width="0.3514" stroke-linecap="round" stroke-linejoin="round" d="
				M274.596-207.513v4.438"/>
			
				<path id="path4599" inkscape:connector-curvature="0" fill="none" stroke="#D89A87" stroke-width="0.3514" stroke-linecap="round" stroke-linejoin="round" d="
				M275.56-207.513v4.438"/>
			
				<path id="path4601" inkscape:connector-curvature="0" fill="none" stroke="#D89A87" stroke-width="0.3514" stroke-linecap="round" stroke-linejoin="round" d="
				M276.525-207.513v4.438"/>
			
				<path id="path4603" inkscape:connector-curvature="0" fill="none" stroke="#D89A87" stroke-width="0.3514" stroke-linecap="round" stroke-linejoin="round" d="
				M277.49-207.513v4.438"/>
			
				<path id="path4605" inkscape:connector-curvature="0" fill="none" stroke="#D89A87" stroke-width="0.3514" stroke-linecap="round" stroke-linejoin="round" d="
				M278.454-207.513v4.438"/>
			
				<path id="path4607" inkscape:connector-curvature="0" fill="none" stroke="#D89A87" stroke-width="0.351" stroke-linecap="round" stroke-linejoin="round" d="
				M279.419-207.513v4.438"/>
			
				<path id="path4609" inkscape:connector-curvature="0" fill="none" stroke="#D89A87" stroke-width="0.306" stroke-linecap="round" stroke-linejoin="round" d="
				M279.296-207.504h-14.237"/>
			
				<path id="path4645" inkscape:connector-curvature="0" fill="none" stroke="#D89A87" stroke-width="0.3514" stroke-linecap="round" stroke-linejoin="round" d="
				M265.074-207.513v4.438"/>
			
				<path id="path4647" inkscape:connector-curvature="0" fill="none" stroke="#D89A87" stroke-width="0.3514" stroke-linecap="round" stroke-linejoin="round" d="
				M266.039-207.513v4.438"/>
			
				<path id="path4649" inkscape:connector-curvature="0" fill="none" stroke="#D89A87" stroke-width="0.3514" stroke-linecap="round" stroke-linejoin="round" d="
				M267.004-207.513v4.438"/>
			
				<path id="path4651" inkscape:connector-curvature="0" fill="none" stroke="#D89A87" stroke-width="0.3514" stroke-linecap="round" stroke-linejoin="round" d="
				M267.968-207.513v4.438"/>
			
				<path id="path4653" inkscape:connector-curvature="0" fill="none" stroke="#D89A87" stroke-width="0.3514" stroke-linecap="round" stroke-linejoin="round" d="
				M268.933-207.513v4.438"/>
			
				<path id="path4655" inkscape:connector-curvature="0" fill="none" stroke="#D89A87" stroke-width="0.3514" stroke-linecap="round" stroke-linejoin="round" d="
				M269.897-207.513v4.438"/>
			
				<path id="path4657" inkscape:connector-curvature="0" fill="none" stroke="#D89A87" stroke-width="0.3514" stroke-linecap="round" stroke-linejoin="round" d="
				M270.862-207.513v4.438"/>
			
				<path id="path4659" inkscape:connector-curvature="0" fill="none" stroke="#D89A87" stroke-width="0.3514" stroke-linecap="round" stroke-linejoin="round" d="
				M271.827-207.513v4.438"/>
			
				<path id="path4661" inkscape:connector-curvature="0" fill="none" stroke="#D89A87" stroke-width="0.3514" stroke-linecap="round" stroke-linejoin="round" d="
				M272.666-207.513v4.438"/>
			
				<path id="path4663" inkscape:connector-curvature="0" fill="none" stroke="#D89A87" stroke-width="0.3514" stroke-linecap="round" stroke-linejoin="round" d="
				M273.631-207.513v4.438"/>
			
				<path id="path4665" inkscape:connector-curvature="0" fill="none" stroke="#D89A87" stroke-width="0.3514" stroke-linecap="round" stroke-linejoin="round" d="
				M274.596-207.513v4.438"/>
			
				<path id="path4667" inkscape:connector-curvature="0" fill="none" stroke="#D89A87" stroke-width="0.3514" stroke-linecap="round" stroke-linejoin="round" d="
				M275.56-207.513v4.438"/>
			
				<path id="path4669" inkscape:connector-curvature="0" fill="none" stroke="#D89A87" stroke-width="0.3514" stroke-linecap="round" stroke-linejoin="round" d="
				M276.525-207.513v4.438"/>
			
				<path id="path4671" inkscape:connector-curvature="0" fill="none" stroke="#D89A87" stroke-width="0.3514" stroke-linecap="round" stroke-linejoin="round" d="
				M277.49-207.513v4.438"/>
			
				<path id="path4673" inkscape:connector-curvature="0" fill="none" stroke="#D89A87" stroke-width="0.3514" stroke-linecap="round" stroke-linejoin="round" d="
				M278.454-207.513v4.438"/>
			
				<path id="path4675" inkscape:connector-curvature="0" fill="none" stroke="#D89A87" stroke-width="0.351" stroke-linecap="round" stroke-linejoin="round" d="
				M279.419-207.513v4.438"/>
			
				<path id="path4677" inkscape:connector-curvature="0" fill="none" stroke="#D89A87" stroke-width="0.306" stroke-linecap="round" stroke-linejoin="round" d="
				M279.296-207.504h-14.237"/>
		</g>
		<g id="g4713" transform="matrix(1.4926274,0,0,1.4926274,-110.03648,682.64977)">
			
				<path id="path4679" inkscape:connector-curvature="0" fill="none" stroke="#D89A87" stroke-width="0.3514" stroke-linecap="round" stroke-linejoin="round" d="
				M265.074-180.227v4.438"/>
			
				<path id="path4681" inkscape:connector-curvature="0" fill="none" stroke="#D89A87" stroke-width="0.3514" stroke-linecap="round" stroke-linejoin="round" d="
				M266.039-180.227v4.438"/>
			
				<path id="path4683" inkscape:connector-curvature="0" fill="none" stroke="#D89A87" stroke-width="0.3514" stroke-linecap="round" stroke-linejoin="round" d="
				M267.004-180.227v4.438"/>
			
				<path id="path4685" inkscape:connector-curvature="0" fill="none" stroke="#D89A87" stroke-width="0.3514" stroke-linecap="round" stroke-linejoin="round" d="
				M267.968-180.227v4.438"/>
			
				<path id="path4687" inkscape:connector-curvature="0" fill="none" stroke="#D89A87" stroke-width="0.3514" stroke-linecap="round" stroke-linejoin="round" d="
				M268.933-180.227v4.438"/>
			
				<path id="path4689" inkscape:connector-curvature="0" fill="none" stroke="#D89A87" stroke-width="0.3514" stroke-linecap="round" stroke-linejoin="round" d="
				M269.897-180.227v4.438"/>
			
				<path id="path4691" inkscape:connector-curvature="0" fill="none" stroke="#D89A87" stroke-width="0.3514" stroke-linecap="round" stroke-linejoin="round" d="
				M270.862-180.227v4.438"/>
			
				<path id="path4693" inkscape:connector-curvature="0" fill="none" stroke="#D89A87" stroke-width="0.3514" stroke-linecap="round" stroke-linejoin="round" d="
				M271.827-180.227v4.438"/>
			
				<path id="path4695" inkscape:connector-curvature="0" fill="none" stroke="#D89A87" stroke-width="0.3514" stroke-linecap="round" stroke-linejoin="round" d="
				M272.666-180.227v4.438"/>
			
				<path id="path4697" inkscape:connector-curvature="0" fill="none" stroke="#D89A87" stroke-width="0.3514" stroke-linecap="round" stroke-linejoin="round" d="
				M273.631-180.227v4.438"/>
			
				<path id="path4699" inkscape:connector-curvature="0" fill="none" stroke="#D89A87" stroke-width="0.3514" stroke-linecap="round" stroke-linejoin="round" d="
				M274.596-180.227v4.438"/>
			
				<path id="path4701" inkscape:connector-curvature="0" fill="none" stroke="#D89A87" stroke-width="0.3514" stroke-linecap="round" stroke-linejoin="round" d="
				M275.56-180.227v4.438"/>
			
				<path id="path4703" inkscape:connector-curvature="0" fill="none" stroke="#D89A87" stroke-width="0.3514" stroke-linecap="round" stroke-linejoin="round" d="
				M276.525-180.227v4.438"/>
			
				<path id="path4705" inkscape:connector-curvature="0" fill="none" stroke="#D89A87" stroke-width="0.3514" stroke-linecap="round" stroke-linejoin="round" d="
				M277.49-180.227v4.438"/>
			
				<path id="path4707" inkscape:connector-curvature="0" fill="none" stroke="#D89A87" stroke-width="0.3514" stroke-linecap="round" stroke-linejoin="round" d="
				M278.454-180.227v4.438"/>
			
				<path id="path4709" inkscape:connector-curvature="0" fill="none" stroke="#D89A87" stroke-width="0.351" stroke-linecap="round" stroke-linejoin="round" d="
				M279.419-180.227v4.438"/>
			
				<path id="path4711" inkscape:connector-curvature="0" fill="none" stroke="#D89A87" stroke-width="0.306" stroke-linecap="round" stroke-linejoin="round" d="
				M279.296-180.218h-14.237"/>
		</g>
		<g id="g4943">
			
				<path id="path4484" inkscape:connector-curvature="0" fill="none" stroke="#D89A87" stroke-width="1.4926" stroke-linecap="round" stroke-linejoin="round" d="
				M281.981,442.387l28.365-0.094"/>
			
				<path id="path4789" inkscape:connector-curvature="0" fill="none" stroke="#D89A87" stroke-width="0.5245" stroke-linecap="round" stroke-linejoin="round" d="
				M281.663,435.878v6.624"/>
			
				<path id="path4791" inkscape:connector-curvature="0" fill="none" stroke="#D89A87" stroke-width="0.5245" stroke-linecap="round" stroke-linejoin="round" d="
				M283.102,435.878v6.624"/>
			
				<path id="path4793" inkscape:connector-curvature="0" fill="none" stroke="#D89A87" stroke-width="0.5245" stroke-linecap="round" stroke-linejoin="round" d="
				M284.542,435.878v6.624"/>
			
				<path id="path4795" inkscape:connector-curvature="0" fill="none" stroke="#D89A87" stroke-width="0.5245" stroke-linecap="round" stroke-linejoin="round" d="
				M285.982,435.878v6.624"/>
			
				<path id="path4797" inkscape:connector-curvature="0" fill="none" stroke="#D89A87" stroke-width="0.5245" stroke-linecap="round" stroke-linejoin="round" d="
				M287.422,435.878v6.624"/>
			
				<path id="path4799" inkscape:connector-curvature="0" fill="none" stroke="#D89A87" stroke-width="0.5245" stroke-linecap="round" stroke-linejoin="round" d="
				M288.862,435.878v6.624"/>
			
				<path id="path4801" inkscape:connector-curvature="0" fill="none" stroke="#D89A87" stroke-width="0.5245" stroke-linecap="round" stroke-linejoin="round" d="
				M290.302,435.878v6.624"/>
			
				<path id="path4803" inkscape:connector-curvature="0" fill="none" stroke="#D89A87" stroke-width="0.5245" stroke-linecap="round" stroke-linejoin="round" d="
				M291.742,435.878v6.624"/>
			
				<path id="path4805" inkscape:connector-curvature="0" fill="none" stroke="#D89A87" stroke-width="0.5245" stroke-linecap="round" stroke-linejoin="round" d="
				M292.995,435.878v6.624"/>
			
				<path id="path4807" inkscape:connector-curvature="0" fill="none" stroke="#D89A87" stroke-width="0.5245" stroke-linecap="round" stroke-linejoin="round" d="
				M294.435,435.878v6.624"/>
			
				<path id="path4809" inkscape:connector-curvature="0" fill="none" stroke="#D89A87" stroke-width="0.5245" stroke-linecap="round" stroke-linejoin="round" d="
				M295.874,435.878v6.624"/>
			
				<path id="path4811" inkscape:connector-curvature="0" fill="none" stroke="#D89A87" stroke-width="0.5245" stroke-linecap="round" stroke-linejoin="round" d="
				M297.314,435.878v6.624"/>
			
				<path id="path4813" inkscape:connector-curvature="0" fill="none" stroke="#D89A87" stroke-width="0.5245" stroke-linecap="round" stroke-linejoin="round" d="
				M298.754,435.878v6.624"/>
			
				<path id="path4815" inkscape:connector-curvature="0" fill="none" stroke="#D89A87" stroke-width="0.5245" stroke-linecap="round" stroke-linejoin="round" d="
				M300.194,435.878v6.624"/>
			
				<path id="path4817" inkscape:connector-curvature="0" fill="none" stroke="#D89A87" stroke-width="0.5245" stroke-linecap="round" stroke-linejoin="round" d="
				M301.634,435.878v6.624"/>
			
				<path id="path4819" inkscape:connector-curvature="0" fill="none" stroke="#D89A87" stroke-width="0.5239" stroke-linecap="round" stroke-linejoin="round" d="
				M303.074,435.878v6.624"/>
			
				<path id="path4821" inkscape:connector-curvature="0" fill="none" stroke="#D89A87" stroke-width="0.7569" stroke-linecap="round" stroke-linejoin="round" d="
				M310.443,436.127h-28.724"/>
			
				<path id="path4840" inkscape:connector-curvature="0" fill="none" stroke="#D89A87" stroke-width="0.5245" stroke-linecap="round" stroke-linejoin="round" d="
				M304.559,435.972v6.624"/>
			
				<path id="path4842" inkscape:connector-curvature="0" fill="none" stroke="#D89A87" stroke-width="0.5245" stroke-linecap="round" stroke-linejoin="round" d="
				M305.999,435.878v6.624"/>
			
				<path id="path4844" inkscape:connector-curvature="0" fill="none" stroke="#D89A87" stroke-width="0.5245" stroke-linecap="round" stroke-linejoin="round" d="
				M307.439,435.878v6.624"/>
			
				<path id="path4846" inkscape:connector-curvature="0" fill="none" stroke="#D89A87" stroke-width="0.5245" stroke-linecap="round" stroke-linejoin="round" d="
				M308.878,435.878v6.624"/>
			
				<path id="path4848" inkscape:connector-curvature="0" fill="none" stroke="#D89A87" stroke-width="0.5245" stroke-linecap="round" stroke-linejoin="round" d="
				M310.318,435.878v6.624"/>
		</g>
	</g>
	<g id="g4856" transform="matrix(1.4926274,0,0,1.4926274,-110.79038,764.31904)">
		<path id="path4228" inkscape:connector-curvature="0" sodipodi:nodetypes="cccsssccsssccccccccccssc" fill="#359063" d="
			M263.788-290.372c-13.89-10.859-23.234-9.344-27.022-4.293c-8.824,17.854,28.571,23.792,9.344,22.476
			c-9.596-1.263-14.142-3.788-19.951,1.263c-6.053,5.264-4.546,19.698,0.758,23.991s5.738,4.883,4.546,8.048
			c-0.741,1.968-4.798,4.326-4.798,4.326c8.636-0.478,12.211-7.647,6.819-12.627c-3.03-2.525-6.061-5.303-6.061-10.354
			c0-5.051,3.431-9.877,7.977-9.119c4.546,0.758,12.647,3.298,16.896,2.418c2.582-0.535,5.543,2.818,5.214,4.942
			c-5.054,35.1,47.503,1.739,35.068,29.791c9.666-7.459,1.632-18.152-7.102-16.907c-33,2.25-19.394-23.357-15.984-17.611
			c11.813,15.553,34.351,2.54,43.289,8.002c6.061,4.041,7.576,8.586,7.576,8.586c-1.677-10.6-13.555-17.135-20.708-15.405
			c-16.968,2.987-26.415-2.214-26.764-11.081c0.089-3.985,4.048,2.066,10.188-0.046c9.396-1.556,11.533-9.835,25.92-4.025
			c0,0-4.542-7.131-15.657-5.051c-5.99,1.121-6.313,3.283-11.364,3.788C276.92-278.756,263.788-290.372,263.788-290.372
			L263.788-290.372z"/>
		<path id="path4230" inkscape:connector-curvature="0" fill="#359063" d="M249.899-264.108c-6.819,4.293-10.859,7.829-8.081,11.617
			c2.778,3.788,8.839,4.546,8.839,4.546"/>
		<path id="path4236" inkscape:connector-curvature="0" sodipodi:nodetypes="cscsc" fill="#359063" d="M295.103-271.684
			c0,0,5.872-4.6,23.234-1.263c5.591,1.075,10.859,4.041,10.859,4.041s-10.354-3.283-18.94-2.02c-8.691,1.278-14.9,6.819-14.9,6.819
			"/>
		<path id="path4250" inkscape:connector-curvature="0" sodipodi:nodetypes="cssccsc" fill="#359063" d="M272.359-283.97
			c6.819-8.586,15.42-13.726,22.996-14.231c7.576-0.505,16.912,4.335,23.233,7.829c9.596,5.303,20.961-1.515,20.961-1.515
			c-5.422,7.225-16.714,8.449-22.981,5.556c-9.344-4.546-16.415-6.313-22.223-5.303c-5.808,1.01-14.782,11.647-14.782,11.647"/>
		<path id="path4252" inkscape:connector-curvature="0" sodipodi:nodetypes="ccc" fill="#359063" d="M250.077-238.707
			c-3.264,3.72-6.181,4.92-10.785,6.923l10.829-2.319"/>
		<text transform="matrix(0.67 0 0 0.67 255.7509 -275.9293)" fill="#F5FFFF" font-family="'ArialMT'" font-size="14.436">$</text>
		<text transform="matrix(0.67 0 0 0.67 261.8223 -279.8582)" fill="#F5FFFF" font-family="'ArialMT'" font-size="14.436">$</text>
	</g>
</g>
</svg>
