<svg data-name="Layer 1" xmlns="http://www.w3.org/2000/svg" viewBox="0 0 16 20">
  <path d="M8 2a6 6 0 00-6 6 7.52 7.52 0 001 3.37 19.62 19.62 0 002.29 3.37 33.71 33.71 0 002.33 2.53l.4.38.4-.38a33.71 33.71 0 002.33-2.53A19.62 19.62 0 0013 11.37 7.52 7.52 0 0014 8a6 6 0 00-6-6z" fill="#39f" fill-rule="evenodd"/>
  <path d="M7.35 19.76L8 19l.65.76a1 1 0 01-1.3 0zM16 8a9.47 9.47 0 01-1.21 4.29A21.66 21.66 0 0112.27 16a32.41 32.41 0 01-2.48 2.69c-.34.33-.62.59-.82.77l-.23.21-.06.06L8 19l-.65.76-.06-.06-.29-.23c-.2-.18-.48-.44-.82-.77A32.41 32.41 0 013.73 16a21.66 21.66 0 01-2.52-3.72A9.47 9.47 0 010 8a8 8 0 0116 0zm-2 0A6 6 0 002 8a7.52 7.52 0 001 3.37 19.62 19.62 0 002.29 3.37 33.71 33.71 0 002.33 2.53l.4.38.4-.38a33.71 33.71 0 002.33-2.53A19.62 19.62 0 0013 11.37 7.52 7.52 0 0014 8z" fill="#282828"/>
  <path d="M8 6a2 2 0 102 2 2 2 0 00-2-2zM4 8a4 4 0 114 4 4 4 0 01-4-4z" fill="#282828" fill-rule="evenodd"/>
  <circle cx="8" cy="8" r="2" fill="#fff"/>
</svg>